<svg width="24" height="24" viewBox="0 0 24 24" fill="none" xmlns="http://www.w3.org/2000/svg">
<g filter="url(#filter0_i_747_1086)">
<circle cx="12" cy="12" r="12" fill="#101C2C"/>
</g>
<circle cx="12" cy="12" r="11.625" stroke="white" stroke-width="0.75"/>
<path d="M18.375 6.86719C18.375 6.72747 18.2277 6.63684 18.103 6.69982L12.0845 9.73932C12.0314 9.76617 11.9686 9.76617 11.9155 9.73932L5.89703 6.69982C5.77231 6.63684 5.625 6.72747 5.625 6.86719V7.87784C5.625 7.94867 5.66492 8.01346 5.72818 8.04531L11.3448 10.8731C11.7521 11.0877 12.2479 11.0877 12.6552 10.8731L18.2718 8.04531C18.3351 8.01346 18.375 7.94867 18.375 7.87784V6.86719Z" fill="#FF0068"/>
<path d="M5.625 17.1327C5.625 17.2724 5.77231 17.363 5.89703 17.3001L11.9155 14.2606C11.9686 14.2337 12.0314 14.2337 12.0845 14.2606L18.103 17.3001C18.2277 17.363 18.375 17.2724 18.375 17.1327V16.1217C18.375 16.0511 18.3353 15.9864 18.2722 15.9545L12.6552 13.1089C12.2479 12.8943 11.7521 12.8943 11.3448 13.1089L5.72777 15.9545C5.66473 15.9864 5.625 16.0511 5.625 16.1217V17.1327Z" fill="white"/>
<defs>
<filter id="filter0_i_747_1086" x="0" y="0" width="24" height="27.75" filterUnits="userSpaceOnUse" color-interpolation-filters="sRGB">
<feFlood flood-opacity="0" result="BackgroundImageFix"/>
<feBlend mode="normal" in="SourceGraphic" in2="BackgroundImageFix" result="shape"/>
<feColorMatrix in="SourceAlpha" type="matrix" values="0 0 0 0 0 0 0 0 0 0 0 0 0 0 0 0 0 0 127 0" result="hardAlpha"/>
<feOffset dy="3.75"/>
<feGaussianBlur stdDeviation="3.75"/>
<feComposite in2="hardAlpha" operator="arithmetic" k2="-1" k3="1"/>
<feColorMatrix type="matrix" values="0 0 0 0 1 0 0 0 0 0 0 0 0 0 0.407843 0 0 0 1 0"/>
<feBlend mode="normal" in2="shape" result="effect1_innerShadow_747_1086"/>
</filter>
</defs>
</svg>